<mxfile><diagram id="XkGYcIg0C0aKIhiCwujv" name="Page-1"><mxGraphModel dx="832" dy="1675" grid="0" gridSize="10" guides="1" tooltips="1" connect="1" arrows="1" fold="1" page="0" pageScale="1" pageWidth="850" pageHeight="1100" math="0" shadow="0"><root><mxCell id="0"/><mxCell id="1" parent="0"/><mxCell id="5" style="edgeStyle=none;html=1;exitX=0.5;exitY=1;exitDx=0;exitDy=0;fontFamily=Comic Sans MS;fontSize=17;endArrow=open;endFill=0;" edge="1" parent="1" source="3"><mxGeometry relative="1" as="geometry"><mxPoint x="466" y="-971" as="targetPoint"/></mxGeometry></mxCell><mxCell id="3" value="" style="rounded=1;whiteSpace=wrap;html=1;" vertex="1" parent="1"><mxGeometry x="410" y="-1059" width="111" height="53" as="geometry"/></mxCell><mxCell id="4" value="window" style="text;strokeColor=none;align=center;fillColor=none;html=1;verticalAlign=middle;whiteSpace=wrap;rounded=0;fontSize=17;fontStyle=2;fontFamily=Comic Sans MS;labelPosition=center;verticalLabelPosition=middle;" vertex="1" parent="1"><mxGeometry x="435.5" y="-1047.5" width="60" height="30" as="geometry"/></mxCell><mxCell id="9" style="edgeStyle=none;html=1;exitX=0.5;exitY=1;exitDx=0;exitDy=0;fontFamily=Comic Sans MS;fontSize=17;endArrow=open;endFill=0;" edge="1" parent="1" source="7"><mxGeometry relative="1" as="geometry"><mxPoint x="470" y="-892" as="targetPoint"/></mxGeometry></mxCell><mxCell id="7" value="" style="rounded=1;whiteSpace=wrap;html=1;fontFamily=Comic Sans MS;fontSize=17;" vertex="1" parent="1"><mxGeometry x="387" y="-970" width="165" height="43" as="geometry"/></mxCell><mxCell id="8" value="Document" style="text;strokeColor=none;align=center;fillColor=none;html=1;verticalAlign=middle;whiteSpace=wrap;rounded=0;fontSize=17;fontStyle=2;fontFamily=Comic Sans MS;" vertex="1" parent="1"><mxGeometry x="439.5" y="-963.5" width="60" height="30" as="geometry"/></mxCell><mxCell id="17" style="edgeStyle=none;html=1;exitX=0.25;exitY=1;exitDx=0;exitDy=0;fontFamily=Comic Sans MS;fontSize=17;endArrow=open;endFill=0;" edge="1" parent="1" source="12"><mxGeometry relative="1" as="geometry"><mxPoint x="370" y="-792" as="targetPoint"/></mxGeometry></mxCell><mxCell id="19" style="edgeStyle=none;html=1;exitX=0.75;exitY=1;exitDx=0;exitDy=0;fontFamily=Comic Sans MS;fontSize=17;endArrow=open;endFill=0;" edge="1" parent="1" source="12"><mxGeometry relative="1" as="geometry"><mxPoint x="584" y="-794" as="targetPoint"/></mxGeometry></mxCell><mxCell id="12" value="Html" style="rounded=1;whiteSpace=wrap;html=1;fontFamily=Comic Sans MS;fontSize=17;" vertex="1" parent="1"><mxGeometry x="394" y="-892" width="165" height="43" as="geometry"/></mxCell><mxCell id="33" value="title" style="edgeStyle=none;html=1;exitX=0.25;exitY=1;exitDx=0;exitDy=0;fontFamily=Comic Sans MS;fontSize=17;endArrow=open;endFill=0;" edge="1" parent="1" source="21"><mxGeometry x="1" y="15" relative="1" as="geometry"><mxPoint x="222" y="-685" as="targetPoint"/><mxPoint x="-18" y="2" as="offset"/></mxGeometry></mxCell><mxCell id="35" style="edgeStyle=none;html=1;exitX=0.75;exitY=1;exitDx=0;exitDy=0;fontFamily=Comic Sans MS;fontSize=17;endArrow=open;endFill=0;entryX=0.5;entryY=0;entryDx=0;entryDy=0;" edge="1" parent="1" source="21" target="41"><mxGeometry relative="1" as="geometry"><mxPoint x="362" y="-665" as="targetPoint"/></mxGeometry></mxCell><mxCell id="21" value="Head" style="rounded=1;whiteSpace=wrap;html=1;fontFamily=Comic Sans MS;fontSize=17;" vertex="1" parent="1"><mxGeometry x="284" y="-791" width="165" height="43" as="geometry"/></mxCell><mxCell id="47" style="edgeStyle=none;html=1;exitX=0.5;exitY=1;exitDx=0;exitDy=0;fontFamily=Comic Sans MS;fontSize=17;endArrow=open;endFill=0;" edge="1" parent="1" source="22" target="46"><mxGeometry relative="1" as="geometry"/></mxCell><mxCell id="22" value="Body" style="rounded=1;whiteSpace=wrap;html=1;fontFamily=Comic Sans MS;fontSize=17;" vertex="1" parent="1"><mxGeometry x="502" y="-791" width="165" height="43" as="geometry"/></mxCell><mxCell id="39" value="text node" style="edgeStyle=none;html=1;exitX=0.25;exitY=1;exitDx=0;exitDy=0;fontFamily=Comic Sans MS;fontSize=17;endArrow=open;endFill=0;" edge="1" parent="1"><mxGeometry x="1" y="11" relative="1" as="geometry"><mxPoint x="209.0999999999999" y="-656" as="sourcePoint"/><mxPoint x="209" y="-615" as="targetPoint"/><mxPoint x="-11" y="11" as="offset"/></mxGeometry></mxCell><mxCell id="42" style="edgeStyle=none;html=1;exitX=0.5;exitY=1;exitDx=0;exitDy=0;fontFamily=Comic Sans MS;fontSize=17;endArrow=open;endFill=0;entryX=0.5;entryY=0;entryDx=0;entryDy=0;" edge="1" parent="1" source="41" target="45"><mxGeometry relative="1" as="geometry"><mxPoint x="360" y="-615" as="targetPoint"/></mxGeometry></mxCell><mxCell id="64" style="edgeStyle=none;html=1;exitX=0.5;exitY=1;exitDx=0;exitDy=0;entryX=0.5;entryY=0;entryDx=0;entryDy=0;fontFamily=Comic Sans MS;fontSize=13;endArrow=open;endFill=0;" edge="1" parent="1" source="41" target="45"><mxGeometry relative="1" as="geometry"/></mxCell><mxCell id="41" value="meta" style="text;strokeColor=none;align=center;fillColor=none;html=1;verticalAlign=middle;whiteSpace=wrap;rounded=0;fontFamily=Comic Sans MS;fontSize=17;glass=0;" vertex="1" parent="1"><mxGeometry x="282" y="-679" width="60" height="30" as="geometry"/></mxCell><mxCell id="45" value="attribute" style="text;strokeColor=none;align=center;fillColor=none;html=1;verticalAlign=middle;whiteSpace=wrap;rounded=0;fontFamily=Comic Sans MS;fontSize=17;" vertex="1" parent="1"><mxGeometry x="282" y="-615" width="60" height="30" as="geometry"/></mxCell><mxCell id="49" style="edgeStyle=none;html=1;exitX=1;exitY=0.5;exitDx=0;exitDy=0;fontFamily=Comic Sans MS;fontSize=17;endArrow=open;endFill=0;" edge="1" parent="1" source="46"><mxGeometry relative="1" as="geometry"><mxPoint x="621" y="-696.5" as="targetPoint"/></mxGeometry></mxCell><mxCell id="51" value="" style="edgeStyle=none;html=1;fontFamily=Comic Sans MS;fontSize=17;endArrow=open;endFill=0;" edge="1" parent="1" source="46"><mxGeometry relative="1" as="geometry"><mxPoint x="705" y="-696" as="targetPoint"/></mxGeometry></mxCell><mxCell id="53" style="edgeStyle=none;html=1;exitX=0.25;exitY=1;exitDx=0;exitDy=0;fontFamily=Comic Sans MS;fontSize=17;endArrow=open;endFill=0;" edge="1" parent="1" source="46"><mxGeometry relative="1" as="geometry"><mxPoint x="523" y="-638" as="targetPoint"/></mxGeometry></mxCell><mxCell id="56" style="edgeStyle=none;html=1;exitX=0.75;exitY=1;exitDx=0;exitDy=0;fontFamily=Comic Sans MS;fontSize=17;endArrow=open;endFill=0;" edge="1" parent="1" source="46"><mxGeometry relative="1" as="geometry"><mxPoint x="646" y="-639" as="targetPoint"/></mxGeometry></mxCell><mxCell id="46" value="div" style="rounded=1;whiteSpace=wrap;html=1;fontFamily=Comic Sans MS;fontSize=17;glass=0;" vertex="1" parent="1"><mxGeometry x="502" y="-718" width="165" height="43" as="geometry"/></mxCell><mxCell id="52" value="attribute" style="text;strokeColor=none;align=center;fillColor=none;html=1;verticalAlign=middle;whiteSpace=wrap;rounded=0;glass=0;fontFamily=Comic Sans MS;fontSize=17;" vertex="1" parent="1"><mxGeometry x="715" y="-715" width="60" height="30" as="geometry"/></mxCell><mxCell id="61" style="edgeStyle=none;html=1;exitX=0.5;exitY=1;exitDx=0;exitDy=0;fontFamily=Comic Sans MS;fontSize=17;endArrow=open;endFill=0;" edge="1" parent="1" source="54"><mxGeometry relative="1" as="geometry"><mxPoint x="516" y="-580" as="targetPoint"/></mxGeometry></mxCell><mxCell id="54" value="h1" style="text;strokeColor=none;align=center;fillColor=none;html=1;verticalAlign=middle;whiteSpace=wrap;rounded=0;glass=0;fontFamily=Comic Sans MS;fontSize=17;" vertex="1" parent="1"><mxGeometry x="486" y="-641" width="60" height="30" as="geometry"/></mxCell><mxCell id="71" style="edgeStyle=none;html=1;exitX=0.5;exitY=1;exitDx=0;exitDy=0;fontFamily=Comic Sans MS;fontSize=17;endArrow=open;endFill=0;" edge="1" parent="1" source="57" target="70"><mxGeometry relative="1" as="geometry"/></mxCell><mxCell id="57" value="p" style="text;strokeColor=none;align=center;fillColor=none;html=1;verticalAlign=middle;whiteSpace=wrap;rounded=0;glass=0;fontFamily=Comic Sans MS;fontSize=17;" vertex="1" parent="1"><mxGeometry x="618" y="-641" width="60" height="26" as="geometry"/></mxCell><mxCell id="62" style="edgeStyle=none;html=1;fontFamily=Comic Sans MS;fontSize=17;endArrow=open;endFill=0;" edge="1" parent="1"><mxGeometry relative="1" as="geometry"><mxPoint x="467.5" y="-623" as="targetPoint"/><mxPoint x="499.5" y="-625" as="sourcePoint"/></mxGeometry></mxCell><mxCell id="63" value="attribute" style="text;strokeColor=none;align=center;fillColor=none;html=1;verticalAlign=middle;whiteSpace=wrap;rounded=0;glass=0;fontFamily=Comic Sans MS;fontSize=17;strokeWidth=0;" vertex="1" parent="1"><mxGeometry x="402" y="-638" width="60" height="30" as="geometry"/></mxCell><mxCell id="69" value="&lt;font style=&quot;font-size: 17px;&quot;&gt;text node&lt;/font&gt;" style="text;strokeColor=none;align=center;fillColor=none;html=1;verticalAlign=middle;whiteSpace=wrap;rounded=0;glass=0;strokeWidth=0;fontFamily=Comic Sans MS;fontSize=13;" vertex="1" parent="1"><mxGeometry x="471.5" y="-581" width="89" height="30" as="geometry"/></mxCell><mxCell id="70" value="text node" style="text;strokeColor=none;align=center;fillColor=none;html=1;verticalAlign=middle;whiteSpace=wrap;rounded=0;glass=0;fontFamily=Comic Sans MS;fontSize=17;strokeWidth=0;" vertex="1" parent="1"><mxGeometry x="609" y="-579" width="84" height="26" as="geometry"/></mxCell></root></mxGraphModel></diagram></mxfile>